# xmcd
#
# Track frame offsets:
#	150
#	10387
#	21947
#	33410
#	52724
#	65014
#	77308
#	88409
#	101951
#	115952
#	128246
#	142127
#	152803
#	163235
#	176133
#	186171
#	198465
#	212093
#	224249
#	236789
#
# Disc length: 3339 seconds
#
# Revision: 0
# Processed by: cddbd v1.5.1PL2 Copyright (c) Steve Scherf et al.
# Submitted via: dBpowerAMP V4.0
#
DISCID=330d0914
DTITLE=Various Artist - Country Legends
DYEAR=1900
DGENRE=Country
TTITLE0=W. Nelson - Healing Hands Of Time
TTITLE1=F. Fender - Before The Next Teardrop Falls
TTITLE2=S. Davis - Gonna Get Along Without You
TTITLE3=B. Bare - Me and Bobby McGee
TTITLE4=J. Cash - Folson Prison Blues
TTITLE5=S. Smith - Send Me The Pillow You Sleep On
TTITLE6=P. Cline - Stop The World and Let Me Off
TTITLE7=R. Price - Heartaches By The Number
TTITLE8=G. Jones - A Good Year For Roses
TTITLE9=S. Jackson - I Love You Because
TTITLE10=J. Carver - Tie A Yellow Ribbon
TTITLE11=BJ Spears - I'm So Lonsome I Could Cry
TTITLE12=D. Dudley - Six Days On The Road
TTITLE13=M. Haggard - Sing Me Back Home
TTITLE14=K. Wells - I Can't Stop Loving You
TTITLE15=M. Bandy - San Antonio Rose
TTITLE16=J. Paycheck - She's Mine
TTITLE17=L. Anderson - How Can I Unlove You
TTITLE18=W. Jackson - Crazy
TTITLE19=R . Sovine - Little Roses
EXTD=
EXTT0=
EXTT1=
EXTT2=
EXTT3=
EXTT4=
EXTT5=
EXTT6=
EXTT7=
EXTT8=
EXTT9=
EXTT10=
EXTT11=
EXTT12=
EXTT13=
EXTT14=
EXTT15=
EXTT16=
EXTT17=
EXTT18=
EXTT19=
PLAYORDER=
